<svg xmlns="http://www.w3.org/2000/svg" viewBox="0 0 480 360">
  <ellipse cx="240" cy="314" rx="128" ry="16" fill="#000" opacity=".1"/>
  <path d="M155 74c9-26 28-38 51-38h68c23 0 42 12 51 38l22 112H133l22-112z" fill="#d88643"/>
  <rect x="113" y="170" width="254" height="113" rx="48" fill="#c87334"/>
  <rect x="155" y="177" width="170" height="86" rx="24" fill="#df9351"/>
  <path d="M142 264l-15 48h18l27-48M338 264l15 48h-18l-27-48" fill="#4b3428"/>
  <path d="M161 75c19 20 39 29 79 29s60-9 79-29" fill="none" stroke="#e7a66e" stroke-width="6"/>
</svg>
