<svg xmlns="http://www.w3.org/2000/svg" viewBox="0 0 480 360">
  <ellipse cx="240" cy="309" rx="145" ry="18" fill="#000" opacity=".1"/>
  <path d="M199 48c-30 55-34 172-13 245h108c21-73 17-190-13-245-24 18-58 18-82 0z" fill="#f7f7f7"/>
  <path d="M223 54c-13 63-15 172-4 239h42c11-67 9-176-4-239-11 4-23 4-34 0z" fill="#15171b"/>
  <path d="M126 238c20-28 50-32 73-8l26 29h30l26-29c23-24 53-20 73 8 13 18 19 43 12 54-8 12-26 1-43-17l-17-17H174l-17 17c-17 18-35 29-43 17-7-11-1-36 12-54z" fill="#f8f8f8" stroke="#d7d7d7" stroke-width="4"/>
  <circle cx="316" cy="242" r="7" fill="#2a2a2a"/><circle cx="337" cy="259" r="7" fill="#2a2a2a"/>
  <path d="M152 252h28M166 238v28" stroke="#2a2a2a" stroke-width="7" stroke-linecap="round"/>
</svg>
