<svg xmlns="http://www.w3.org/2000/svg" viewBox="0 0 256 256" role="img" aria-label="Mert — 2ElBul avatar">
  <defs>
    <linearGradient id="bg-k" x1="0" y1="0" x2="1" y2="1">
      <stop offset="0" stop-color="#fff1e7"/>
      <stop offset="1" stop-color="#ffd2b8"/>
    </linearGradient>
    <radialGradient id="glow-k" cx="0.5" cy="0.3" r="0.75">
      <stop offset="0" stop-color="#ffffff" stop-opacity="0.35"/>
      <stop offset="1" stop-color="#ffffff" stop-opacity="0"/>
    </radialGradient>
    <clipPath id="clip-k"><rect x="12" y="12" width="232" height="232" rx="40"/></clipPath>
  </defs>
  <g clip-path="url(#clip-k)">
    <rect x="12" y="12" width="232" height="232" rx="40" fill="url(#bg-k)"/>
    <circle cx="128" cy="118" r="104" fill="url(#glow-k)"/>
    <circle cx="128" cy="128" r="86" fill="#ffffff" opacity="0.05"/>
    <path d="M18 206 C46 176 86 162 128 162 C170 162 210 176 238 206 L238 244 L18 244 Z" fill="#000" opacity="0.10"/>
    
    <path d="M48 218 C54 176 82 150 128 150 C174 150 202 176 208 218 L208 248 L48 248 Z" fill="#ff6b00"/>
    <path d="M82 170 C88 154 106 146 128 146 C150 146 168 154 174 170 C160 178 96 178 82 170 Z" fill="#e3b185"/>
    <ellipse cx="128" cy="122" rx="57" ry="62" fill="#e3b185"/>
    <path d="M84 150 C82 64 94 50 128 50 C168 50 178 72 178 118 C158 104 138 96 114 96 C100 118 92 140 84 150 Z" fill="#241a14"/><path d="M128 50 C138 60 142 78 140 96 C142 76 138 60 128 50 Z" fill="#000" opacity="0.2"/>
    <path d="M118 120 C122 126 134 126 138 120" fill="none" stroke="#8a2b18" stroke-width="5" stroke-linecap="round" opacity="0.22"/>
    <g fill="#2c1a10"><circle cx="106" cy="122" r="6.5"/><circle cx="150" cy="122" r="6.5"/></g>
    <path d="M103 119 a2.4 2.4 0 0 1 3-0.4" fill="none" stroke="#fff" stroke-width="2" stroke-linecap="round" opacity="0.85"/>
    <path d="M98 198 C108 194 118 196 124 200" fill="none" stroke="#20150e" stroke-width="8" stroke-linecap="round"/><path d="M132 200 C138 196 148 194 158 198" fill="none" stroke="#20150e" stroke-width="8" stroke-linecap="round"/>
    <path d="M126 132 C130 135 132 135 132 131" fill="none" stroke="#b0572e" stroke-width="5" stroke-linecap="round" opacity="0.6"/>
    <path d="M112 150 C122 156 134 156 144 150" fill="none" stroke="#7a2010" stroke-width="6" stroke-linecap="round" opacity="0.8"/>
    <path d="M80 100 C92 92 166 92 178 100" fill="none" stroke="#241a14" stroke-width="8" stroke-linecap="round"/>
    <circle cx="96" cy="133" r="9" fill="#eb7d4a" opacity="0.16"/><circle cx="160" cy="133" r="9" fill="#eb7d4a" opacity="0.16"/>
  </g>
</svg>
