<svg viewBox="0 0 256 256" role="img" aria-label="Deniz — 2ElBul avatar">
  <defs>
    <linearGradient id="bg-h" x1="0" y1="0" x2="1" y2="1">
      <stop offset="0" stop-color="#e8f6ff"/>
      <stop offset="1" stop-color="#c9e8ff"/>
    </linearGradient>
    <radialGradient id="glow-h" cx="0.5" cy="0.3" r="0.75">
      <stop offset="0" stop-color="#ffffff" stop-opacity="0.35"/>
      <stop offset="1" stop-color="#ffffff" stop-opacity="0"/>
    </radialGradient>
    <clipPath id="clip-h"><rect x="12" y="12" width="232" height="232" rx="40"/></clipPath>
  </defs>
  <g clip-path="url(#clip-h)">
    <rect x="12" y="12" width="232" height="232" rx="40" fill="url(#bg-h)"/>
    <circle cx="128" cy="118" r="104" fill="url(#glow-h)"/>
    <circle cx="128" cy="128" r="86" fill="#ffffff" opacity="0.05"/>
    <path d="M18 206 C46 176 86 162 128 162 C170 162 210 176 238 206 L238 244 L18 244 Z" fill="#000" opacity="0.10"/>
    
    <path d="M48 218 C54 176 82 150 128 150 C174 150 202 176 208 218 L208 248 L48 248 Z" fill="#2a7fc2"/>
    <path d="M82 170 C88 154 106 146 128 146 C150 146 168 154 174 170 C160 178 96 178 82 170 Z" fill="#e3b185"/>
    <ellipse cx="128" cy="122" rx="53" ry="60" fill="#e3b185"/>
    <path d="M84 152 C80 60 96 46 128 46 C160 46 176 60 176 152 C148 158 110 158 84 152 Z" fill="#e2a829"/><path d="M128 74 C104 70 92 82 88 96 C70 88 78 74 92 68 C96 56 114 48 128 52 Z" fill="#d4931b" opacity="0.7"/>
    <path d="M118 120 C122 126 134 126 138 120" fill="none" stroke="#8a2b18" stroke-width="5" stroke-linecap="round" opacity="0.22"/>
    <g fill="#2c1a10"><circle cx="108" cy="122" r="6.5"/><circle cx="148" cy="122" r="6.5"/></g>
    <path d="M105 119 a2.4 2.4 0 0 1 3-0.4" fill="none" stroke="#fff" stroke-width="2" stroke-linecap="round" opacity="0.85"/>
    <path d="M98 200 C106 200 114 198 120 198" fill="none" stroke="#20150e" stroke-width="7" stroke-linecap="round"/><path d="M136 198 C142 198 150 200 158 200" fill="none" stroke="#20150e" stroke-width="7" stroke-linecap="round"/>
    <path d="M126 132 C130 135 132 135 132 131" fill="none" stroke="#b0572e" stroke-width="5" stroke-linecap="round" opacity="0.6"/>
    <path d="M108 146 C118 158 138 158 148 146" fill="none" stroke="#7a2010" stroke-width="6" stroke-linecap="round" opacity="0.9"/>
    <g><rect x="72" y="104" width="40" height="32" rx="16" fill="none" stroke="#191a24" stroke-width="7"/><rect x="144" y="104" width="40" height="32" rx="16" fill="none" stroke="#191a24" stroke-width="7"/><path d="M112 122 H144" stroke="#191a24" stroke-width="6" stroke-linecap="round"/></g>
    <circle cx="96" cy="133" r="9" fill="#eb7d4a" opacity="0.16"/><circle cx="160" cy="133" r="9" fill="#eb7d4a" opacity="0.16"/>
  </g>
</svg>
