<svg viewBox="0 0 256 256" role="img" aria-label="Bora — 2ElBul avatar">
  <defs>
    <linearGradient id="bg-l" x1="0" y1="0" x2="1" y2="1">
      <stop offset="0" stop-color="#eaf4ff"/>
      <stop offset="1" stop-color="#d0e5ff"/>
    </linearGradient>
    <radialGradient id="glow-l" cx="0.5" cy="0.3" r="0.75">
      <stop offset="0" stop-color="#ffffff" stop-opacity="0.35"/>
      <stop offset="1" stop-color="#ffffff" stop-opacity="0"/>
    </radialGradient>
    <clipPath id="clip-l"><rect x="12" y="12" width="232" height="232" rx="40"/></clipPath>
  </defs>
  <g clip-path="url(#clip-l)">
    <rect x="12" y="12" width="232" height="232" rx="40" fill="url(#bg-l)"/>
    <circle cx="128" cy="118" r="104" fill="url(#glow-l)"/>
    <circle cx="128" cy="128" r="86" fill="#ffffff" opacity="0.05"/>
    <path d="M18 206 C46 176 86 162 128 162 C170 162 210 176 238 206 L238 244 L18 244 Z" fill="#000" opacity="0.10"/>
    
    <path d="M48 218 C54 176 82 150 128 150 C174 150 202 176 208 218 L208 248 L48 248 Z" fill="#e0a63c"/>
    <path d="M82 170 C88 154 106 146 128 146 C150 146 168 154 174 170 C160 178 96 178 82 170 Z" fill="#e3b185"/>
    <ellipse cx="128" cy="121" rx="56" ry="61" fill="#e3b185"/>
    <path d="M80 116 C78 68 96 50 128 50 C160 50 178 68 178 114 C164 92 148 82 128 82 C108 82 92 94 78 116 Z" fill="#33261a"/><path d="M128 50 C120 44 108 48 100 54 C112 46 122 44 128 50 Z M128 50 C136 44 148 48 156 54 C144 46 134 44 128 50 Z" fill="#503a24"/>
    <path d="M118 119 C122 125 134 125 138 119" fill="none" stroke="#8a2b18" stroke-width="5" stroke-linecap="round" opacity="0.22"/>
    <g fill="#2c1a10"><circle cx="107" cy="121" r="6.5"/><circle cx="149" cy="121" r="6.5"/></g>
    <path d="M104 118 a2.4 2.4 0 0 1 3-0.4" fill="none" stroke="#fff" stroke-width="2" stroke-linecap="round" opacity="0.85"/>
    <path d="M98 197 C108 201 118 199 124 195" fill="none" stroke="#20150e" stroke-width="6" stroke-linecap="round"/><path d="M132 195 C138 199 148 201 158 197" fill="none" stroke="#20150e" stroke-width="6" stroke-linecap="round"/>
    <path d="M126 132 C130 135 132 135 132 131" fill="none" stroke="#b0572e" stroke-width="5" stroke-linecap="round" opacity="0.6"/>
    <path d="M108 146 C118 158 138 158 148 146" fill="none" stroke="#7a2010" stroke-width="6" stroke-linecap="round" opacity="0.9"/>
    <path d="M102 142 C110 146 146 146 156 140 C146 150 110 150 102 142 Z" fill="#c9643a" opacity="0.15"/>
    <circle cx="96" cy="133" r="9" fill="#eb7d4a" opacity="0.16"/><circle cx="160" cy="133" r="9" fill="#eb7d4a" opacity="0.16"/>
  </g>
</svg>
